<svg width="18" height="18" viewBox="0 0 18 18" fill="none" xmlns="http://www.w3.org/2000/svg">
<path d="M9 16.5C4.86 16.5 1.5 13.14 1.5 9C1.5 4.86 4.86 1.5 9 1.5C13.14 1.5 16.5 4.86 16.5 9C16.5 13.14 13.14 16.5 9 16.5ZM11.6475 8.9775C11.535 8.865 11.3925 8.8125 11.25 8.8125C11.1075 8.8125 10.965 8.865 10.8525 8.9775L9.5625 10.2675V6.375C9.5625 6.0675 9.3075 5.8125 9 5.8125C8.6925 5.8125 8.4375 6.0675 8.4375 6.375V10.2675L7.1475 8.9775C6.93 8.76 6.57 8.76 6.3525 8.9775C6.135 9.195 6.135 9.555 6.3525 9.7725L8.6025 12.0225C8.82 12.24 9.18 12.24 9.3975 12.0225L11.6475 9.7725C11.865 9.555 11.865 9.195 11.6475 8.9775Z" fill="#003974"/>
</svg>
