<svg width="24" height="25" viewBox="0 0 24 25" fill="none" xmlns="http://www.w3.org/2000/svg">
<path d="M22 9.31999V4.77999C22 3.36999 21.36 2.79999 19.77 2.79999H15.73C14.14 2.79999 13.5 3.36999 13.5 4.77999V9.30999C13.5 10.73 14.14 11.29 15.73 11.29H19.77C21.36 11.3 22 10.73 22 9.31999Z" stroke="currentColor" stroke-width="1.5" stroke-linecap="round" stroke-linejoin="round"/>
<path d="M22 20.57V16.53C22 14.94 21.36 14.3 19.77 14.3H15.73C14.14 14.3 13.5 14.94 13.5 16.53V20.57C13.5 22.16 14.14 22.8 15.73 22.8H19.77C21.36 22.8 22 22.16 22 20.57Z" stroke="currentColor" stroke-width="1.5" stroke-linecap="round" stroke-linejoin="round"/>
<path d="M10.5 9.31999V4.77999C10.5 3.36999 9.86 2.79999 8.27 2.79999H4.23C2.64 2.79999 2 3.36999 2 4.77999V9.30999C2 10.73 2.64 11.29 4.23 11.29H8.27C9.86 11.3 10.5 10.73 10.5 9.31999Z" stroke="currentColor" stroke-width="1.5" stroke-linecap="round" stroke-linejoin="round"/>
<path d="M10.5 20.57V16.53C10.5 14.94 9.86 14.3 8.27 14.3H4.23C2.64 14.3 2 14.94 2 16.53V20.57C2 22.16 2.64 22.8 4.23 22.8H8.27C9.86 22.8 10.5 22.16 10.5 20.57Z" stroke="currentColor" stroke-width="1.5" stroke-linecap="round" stroke-linejoin="round"/>
</svg>
