<svg width="24" height="25" viewBox="0 0 24 25" fill="none" xmlns="http://www.w3.org/2000/svg">
<path d="M8 12.6H15" stroke="currentColor" stroke-width="1.5" stroke-miterlimit="10" stroke-linecap="round" stroke-linejoin="round"/>
<path d="M8 16.6H12.38" stroke="currentColor" stroke-width="1.5" stroke-miterlimit="10" stroke-linecap="round" stroke-linejoin="round"/>
<path d="M10 6.39999H14C16 6.39999 16 5.39999 16 4.39999C16 2.39999 15 2.39999 14 2.39999H10C9 2.39999 8 2.39999 8 4.39999C8 6.39999 9 6.39999 10 6.39999Z" stroke="currentColor" stroke-width="1.5" stroke-miterlimit="10" stroke-linecap="round" stroke-linejoin="round"/>
<path d="M16 4.41998C19.33 4.59998 21 5.82998 21 10.4V16.4C21 20.4 20 22.4 15 22.4H9C4 22.4 3 20.4 3 16.4V10.4C3 5.83998 4.67 4.59998 8 4.41998" stroke="currentColor" stroke-width="1.5" stroke-miterlimit="10" stroke-linecap="round" stroke-linejoin="round"/>
</svg>
