<svg width="118" height="89" viewBox="0 0 118 89" fill="none" xmlns="http://www.w3.org/2000/svg">
<g clip-path="url(#clip0_109_1932)">
<path d="M34.7661 80.8979C34.081 81.0298 34.1249 81.7116 34.8978 81.7116C39.4341 81.7116 42.8243 79.5123 42.8243 75.2941C42.8243 71.3354 39.8733 67.9926 34.6124 67.9926C32.6384 67.9914 30.7273 68.6876 29.2154 69.9587C28.3779 70.7212 27.7327 71.6716 27.3327 72.732C26.9327 73.7925 26.7893 74.9328 26.9143 76.0595C27.1119 78.659 28.2317 80.2689 29.4218 80.2689C32.0566 80.2689 35.741 75.8703 37.0189 72.3515C37.3417 71.4778 37.5484 70.5653 37.6337 69.6376C38.7119 70.0708 39.6374 70.815 40.2926 71.7759C40.9478 72.7368 41.3032 73.871 41.3137 75.0346C41.3049 78.659 38.5734 80.1237 34.7661 80.8979ZM35.8815 71.0451C34.9286 74.1241 31.859 78.6634 29.7336 78.6634C29.0924 78.6634 28.4161 77.2779 28.3195 75.5844C28.2469 74.7066 28.3794 73.824 28.7064 73.0063C29.0334 72.1887 29.5459 71.4585 30.2034 70.8736C31.3521 69.8215 32.8373 69.2134 34.3928 69.1582C35.0198 69.1195 35.6492 69.1549 36.2679 69.2637C36.1994 69.8619 36.0699 70.4514 35.8815 71.0231V71.0451Z" fill="#003974"/>
<path d="M53.9169 75.0258C53.3404 75.0257 52.7644 74.9949 52.1911 74.9334C52.145 74.9216 52.097 74.9191 52.0498 74.9259C52.0027 74.9328 51.9574 74.949 51.9166 74.9736C51.8757 74.9981 51.8401 75.0305 51.8119 75.0689C51.7836 75.1074 51.7633 75.151 51.752 75.1974C51.752 75.3689 51.9364 75.5272 52.257 75.712C52.3928 75.7551 52.5173 75.828 52.6213 75.9254C52.7254 76.0228 52.8065 76.1422 52.8586 76.275C53.0474 76.6445 53.1529 76.86 53.895 76.86C54.4576 76.8745 55.0112 76.7168 55.482 76.4079C55.9528 76.0991 56.3183 75.6537 56.5298 75.1314C57.0305 74.1989 57.2983 71.8325 57.3247 69.9983C57.856 69.708 58.1459 69.4704 58.1459 69.1538C58.1459 68.7139 56.8021 67.5571 56.218 67.5571C55.9809 67.5571 55.6867 67.9002 55.3398 68.3488H52.5161C52.5688 67.711 52.5951 67.0293 52.5951 66.4091C53.3373 66.2243 53.6842 66.0924 53.6842 65.7185C53.7369 65.2171 51.9277 64.9224 51.1416 64.9224C50.8474 64.9224 50.7683 65.0279 50.7947 65.2918C50.8809 66.3167 50.8736 67.3473 50.7727 68.3708H46.4208C46.0739 68.3708 45.8368 68.5072 45.8368 68.903C45.8368 69.2989 46.0739 69.4353 46.4208 69.4353H50.6673C50.536 70.7458 50.1763 72.0231 49.6046 73.2092C48.7263 74.8587 47.1893 76.0815 45.7841 77.0667C45.1429 77.5462 45.5953 78.2631 46.3374 77.8893C47.9842 77.0667 49.9164 75.6592 50.9747 73.7942C51.7127 72.4423 52.1908 70.9638 52.3844 69.4353H55.6867C55.7657 70.9528 55.5857 73.1212 55.1246 74.1285C55.0495 74.3901 54.8905 74.6196 54.6723 74.7818C54.4541 74.9439 54.1886 75.0297 53.9169 75.0258Z" fill="#003974"/>
<path d="M68.7248 68.3268C68.7248 67.7682 67.6445 66.8137 67.1131 66.8137C66.8453 66.8137 66.5071 67.0732 66.1339 67.6055H62.0455C61.4709 67.1439 60.7926 66.8298 60.0693 66.6906C60.021 66.6814 59.9712 66.6837 59.9239 66.6972C59.8766 66.7107 59.8331 66.7351 59.7969 66.7684C59.7606 66.8017 59.7326 66.843 59.7151 66.8891C59.6977 66.9351 59.6911 66.9846 59.6961 67.0336C59.9595 69.4528 59.8015 74.2253 59.8015 76.0331C59.7892 76.1278 59.7984 76.2242 59.8283 76.3149C59.8582 76.4056 59.9081 76.4885 59.9743 76.5573C60.0405 76.6262 60.1213 76.6792 60.2107 76.7126C60.3001 76.7459 60.3959 76.7587 60.4909 76.75C61.2638 76.75 61.4658 76.5125 61.4658 75.9275V75.0478H66.2085V75.4436C66.1953 75.5591 66.207 75.6761 66.2427 75.7867C66.2784 75.8973 66.3373 75.9989 66.4156 76.0848C66.4938 76.1706 66.5895 76.2387 66.6962 76.2844C66.8028 76.3301 66.9181 76.3524 67.0341 76.3497C67.7762 76.3497 67.9519 76.1606 67.9519 75.3381C67.9519 74.41 67.8729 70.7372 67.9519 68.9558C68.3998 68.7755 68.7248 68.6479 68.7248 68.3268ZM66.2305 73.9877H61.4614V71.938C61.4614 71.4058 61.4614 69.466 61.5141 68.6699H66.2568C66.2568 69.9015 66.2305 72.3647 66.2305 73.9877Z" fill="#003974"/>
<path d="M88.8724 70.4074C88.2577 70.4074 87.8185 71.0056 85.9566 71.2299C85.8643 70.5437 85.5833 68.6216 85.4691 67.9354C85.2408 66.4707 84.9773 66.1408 83.8311 66.0352C83.3305 65.9868 82.8255 66.0352 82.7728 66.2815C82.7201 66.5279 82.8079 66.5411 83.3569 67.1832C84.0419 67.9618 84.3317 70.3546 84.424 71.4982C83.2119 71.6785 81.6574 71.8017 80.5156 71.8457C79.5319 71.8941 78.9128 72.3823 78.2716 73.2092C77.2199 74.6572 76.2901 76.1903 75.4919 77.7925C75.1493 78.2764 75.0176 78.1136 74.9298 77.7705C74.8112 77.2769 74.7639 76.7689 74.7892 76.2618C74.9298 74.2517 76.032 71.2431 76.2999 70.0423C76.8137 67.7375 76.1506 66.4047 74.3501 65.7625C73.911 65.6042 73.687 65.8989 73.8671 66.2024C74.6443 67.5219 75.0352 67.8254 74.7805 69.3605C74.3721 72.0348 73.3225 74.0274 73.3225 77.0008C73.3225 78.7602 73.9154 80.6604 75.1493 81.8392C75.6719 82.3406 76.4053 82.411 76.6073 82.0679C76.9279 81.5401 76.357 80.9947 76.357 79.5959C76.357 78.4303 78.5527 74.9907 79.2816 74.0318C79.4529 73.8071 79.6698 73.6215 79.9182 73.4872C80.1665 73.353 80.4405 73.2732 80.722 73.2532C82.0087 73.0861 83.2734 72.9937 84.5294 72.8793C84.6688 74.254 84.6688 75.6393 84.5294 77.014C84.2088 79.6531 83.2119 81.197 80.419 83.0048C79.9799 83.2951 80.1907 83.8053 80.6693 83.669C84.8016 82.5473 85.5789 79.851 85.939 77.8145C86.2165 76.1206 86.2638 74.3968 86.0795 72.6902C87.1633 72.5519 88.2185 72.2431 89.2062 71.7753C90.0581 71.3663 89.8298 70.4074 88.8724 70.4074Z" fill="#003974"/>
<path d="M112.142 85.2964C112.142 84.817 112.142 83.1543 112.169 82.3318C112.568 82.1734 113.047 81.7644 112.775 81.4521C112.336 80.9594 111.585 80.414 111.203 80.4316C110.821 80.4492 110.764 80.7527 110.434 81.0958H107.444C106.96 80.785 106.429 80.5547 105.872 80.414C105.823 80.3983 105.772 80.3949 105.722 80.4041C105.673 80.4133 105.626 80.4349 105.587 80.4668C105.547 80.4988 105.517 80.54 105.497 80.5869C105.478 80.6338 105.471 80.6847 105.476 80.7351C105.529 82.8464 105.507 84.2539 105.507 85.5735C105.507 86.0134 105.81 86.1717 106.355 86.1717C106.899 86.1717 107.101 85.965 107.101 85.6395V85.3668H110.526V85.5779C110.526 86.0178 110.68 86.1717 111.291 86.1717C111.901 86.1717 112.142 86.1365 112.142 85.2964ZM110.553 84.2583H107.075V83.8581C107.075 83.383 107.101 82.6661 107.101 82.2658H110.579L110.553 84.2583Z" fill="#003974"/>
<path d="M97.9144 72.2856H100.251C100.69 72.2856 101.261 72.1009 101.261 71.7006C101.261 71.142 100.163 70.0907 99.6358 70.0907C99.2889 70.0907 99.1264 70.1831 98.6214 71.0056H97.91C97.9364 69.145 97.9364 67.5264 97.9627 66.6731C98.7839 66.5147 99.3153 66.2332 99.3153 65.7714C99.3153 65.1336 98.1076 64.9752 96.4082 64.9752C96.171 64.9752 96.0129 65.1072 96.0656 65.3447C96.2732 67.2241 96.3304 69.1171 96.2369 71.0056H93.343C93.0004 71.0056 92.7589 71.1376 92.7589 71.5378C92.7589 71.9381 93.0004 72.2856 93.343 72.2856H96.1578V72.3472C95.2796 74.6212 91.986 80.9947 86.0576 84.2232C77.4988 88.9033 65.3961 87.4561 59.5512 81.1442L59.3535 80.9243H68.1363C69.2254 80.9243 69.6777 80.6604 69.6777 80.2865C69.6777 79.596 67.8773 78.5667 67.3195 78.5667C66.8804 78.5667 66.2393 79.0066 65.563 79.7147H58.708V78.1356C59.5336 78.0037 60.0254 77.6958 60.0254 77.2823C60.0254 76.6182 58.1942 76.5126 56.9998 76.5126C56.7626 76.5126 56.6045 76.6182 56.6572 76.8865C56.7725 77.8249 56.8341 78.7692 56.8417 79.7147H46.2847C45.9422 79.7147 45.7007 79.8467 45.7007 80.2469C45.6895 80.3308 45.6962 80.416 45.7203 80.4971C45.7445 80.5782 45.7855 80.6532 45.8407 80.7172C45.8959 80.7812 45.964 80.8327 46.0405 80.8685C46.1171 80.9042 46.2003 80.9232 46.2847 80.9243H55.6033C53.5613 83.6646 50.1097 85.8463 45.9159 87.5749C45.143 87.918 45.4767 88.6349 46.2847 88.4238C50.319 87.3293 53.9937 85.1886 56.9383 82.2175V82.5342C56.9383 83.5722 56.8768 87.5133 56.8768 88.2083C56.8715 88.3084 56.8883 88.4085 56.9258 88.5015C56.9633 88.5945 57.0207 88.6781 57.094 88.7464C57.1673 88.8148 57.2546 88.8662 57.3498 88.8971C57.4451 88.928 57.5459 88.9376 57.6453 88.9253C58.4401 88.9253 58.7607 88.7405 58.7607 88.1555C58.7607 87.4869 58.708 83.757 58.708 82.7849V82.0723C63.4419 88.0192 73.4982 89.8577 81.4159 87.7289C89.5049 85.5296 94.5067 79.9039 96.3467 74.74C96.3467 75.4921 96.2018 86.8667 96.2018 87.9576C96.2018 88.4326 96.3906 88.9253 97.0186 88.9165C97.8661 88.9165 98.0286 88.6042 98.0286 87.9928C98.0286 86.8492 97.9232 78.4215 97.9232 76.5346L97.9144 72.2856Z" fill="#003974"/>
<path d="M114.861 77.7222C114.5 77.8129 114.187 78.0357 113.982 78.3468H104.203C103.622 77.9727 102.965 77.7337 102.279 77.6474C102.231 77.6392 102.182 77.6421 102.135 77.656C102.088 77.6698 102.045 77.6942 102.009 77.7273C101.973 77.7604 101.945 77.8014 101.927 77.847C101.909 77.8926 101.902 77.9417 101.906 77.9905C102.025 80.8055 101.906 85.9782 101.906 87.8916C101.894 87.9921 101.905 88.094 101.938 88.1897C101.971 88.2854 102.025 88.3723 102.097 88.4438C102.168 88.5154 102.255 88.5698 102.351 88.6029C102.446 88.636 102.548 88.647 102.648 88.6349C103.417 88.6349 103.623 88.371 103.623 87.786V83.2643C103.623 82.6793 103.584 80.4053 103.623 79.6355C103.729 79.6091 114.321 79.6355 114.321 79.6355V82.1427C114.321 83.2599 114.321 85.4416 114.268 86.3741C114.215 86.9591 113.934 87.157 113.39 87.157C113.095 87.157 112.459 87.1042 112.274 87.1042C111.769 87.1042 111.69 87.7156 112.221 87.9532C113.416 88.4326 112.779 88.9912 113.816 88.9912C114.104 89.0039 114.392 88.9552 114.66 88.8481C114.928 88.7411 115.17 88.5782 115.371 88.3702C115.571 88.1623 115.725 87.9141 115.823 87.642C115.921 87.3699 115.959 87.0801 115.937 86.7919C115.963 84.5927 115.937 81.7248 115.963 80.1018C116.494 79.917 116.841 79.7059 116.841 79.3628C116.811 78.8834 115.497 77.7222 114.861 77.7222Z" fill="#003974"/>
<path d="M99.0298 75.2634C98.4282 74.9203 98.0989 75.4481 98.3667 75.9275C98.66 76.4502 98.9168 76.9925 99.1352 77.5506C99.4251 78.3203 99.6402 78.9581 100.277 79.0109C100.914 79.0637 101.278 78.4039 101.067 77.7705C100.728 76.7075 100 75.8121 99.0298 75.2634Z" fill="#003974"/>
<path d="M117.026 73.4203C114.505 72.7825 112.858 71.9292 111.875 70.5745H115.62C116.573 70.5745 117.026 70.3633 117.026 69.9895C117.026 69.3781 115.37 68.3796 114.865 68.3796C114.496 68.3796 114.338 68.6347 113.807 69.4045H107.896C108.094 68.9426 108.379 68.2652 108.612 67.645C110.28 67.4559 111.875 67.1216 113.069 66.8841C113.737 67.1524 114.452 66.7609 114.154 66.3607C113.891 66.0122 113.597 65.6884 113.275 65.393C112.77 64.9531 112.665 65.0235 112.028 65.3138C109.556 66.1935 106.082 66.7785 102.367 67.148C101.546 67.2536 101.678 68.0541 102.451 68.0277C103.803 68.0277 105.235 67.9485 106.644 67.8386C106.478 68.3728 106.282 68.8971 106.056 69.4089H101.568C101.225 69.4089 100.984 69.5408 100.984 69.9411C100.984 70.3413 101.173 70.5789 101.52 70.5789H105.599C104.218 72.3231 102.53 73.8002 100.619 74.9378C99.9256 75.3777 100.299 76.1342 101.059 75.7911C102.51 75.163 103.854 74.3111 105.042 73.2664C105.147 74.7795 105.068 75.9055 105.068 76.9743C105.068 77.4142 105.279 77.6649 105.705 77.6649C106.368 77.6649 106.64 77.511 106.64 77.1151V76.9392H110.926C110.926 77.379 111.08 77.5901 111.721 77.5901C112.362 77.5901 112.555 77.4054 112.555 76.5785C112.555 76.1386 112.582 74.6123 112.582 73.891C112.746 73.8324 112.903 73.7526 113.047 73.6534C113.694 74.0979 114.373 74.492 115.08 74.8323C115.959 75.127 116.103 74.8894 116.437 74.5024C116.605 74.2923 116.834 74.1388 117.092 74.0625C117.417 73.9481 117.847 73.5611 117.026 73.4203ZM110.939 75.7691H106.627V75.3601C106.627 74.8806 106.653 74.2648 106.653 73.869H110.966C110.966 74.41 110.939 75.1401 110.939 75.7515V75.7691ZM110.869 72.7298H106.838C106.597 72.546 106.33 72.3979 106.047 72.2899C106.548 71.7703 106.99 71.1964 107.365 70.5789H110.487C110.741 71.1287 111.061 71.6456 111.44 72.1184C111.215 72.2799 111.022 72.4811 110.869 72.7122V72.7298Z" fill="#003974"/>
<path d="M10.71 73.3193C10.6486 72.9322 9.44093 71.9205 8.88322 71.9205C8.58899 71.9205 8.30355 72.29 7.87758 72.8222H1.70328C1.62467 72.8127 1.54494 72.821 1.46991 72.8463C1.39488 72.8716 1.32645 72.9134 1.26962 72.9687C1.2128 73.0239 1.16902 73.0912 1.14148 73.1655C1.11394 73.2399 1.10333 73.3195 1.11044 73.3984C1.11044 73.8383 1.3388 74.0758 1.68133 74.0758H7.9742C7.14861 78.6987 4.90022 82.3407 0.851349 85.5824C0.188248 86.1146 0.539561 86.6776 1.25097 86.2862C6.42843 83.4139 8.60217 79.4068 9.87568 74.0626C10.4334 73.8207 10.7627 73.636 10.71 73.3193Z" fill="#003974"/>
<path d="M44.919 83.5942C29.5491 91.5687 20.1647 82.6881 17.2532 77.5066C19.3908 76.0905 21.3516 74.4233 23.0938 72.5407C23.8359 72.7518 24.4946 72.7386 24.5473 72.3119C24.6264 71.7797 24.1082 71.2827 23.1377 70.3414C22.7205 69.9543 22.2594 70.4294 21.9564 70.9088C20.6829 73.1081 18.821 74.4276 16.5638 76.2398C15.3605 73.9394 15.0531 72.3295 14.5262 72.4087C14.2276 72.4527 13.705 73.1125 14.3154 74.7751C19.2645 88.3094 33.9801 92.1405 45.3801 84.7114C46.3111 84.1044 45.8412 83.0971 44.919 83.5942Z" fill="#003974"/>
<path d="M14.9389 65.9033C14.9389 65.3447 13.8015 65.0236 12.0757 65.0236C11.6366 65.0236 11.5444 65.1291 11.5707 65.4634C11.8869 68.1773 11.6893 74.4496 11.6893 76.4598C11.6893 79.3056 11.7464 83.7965 11.641 85.6967C11.5883 86.5192 11.2282 86.7523 10.6705 86.7523C10.2313 86.7523 9.60776 86.6996 9.07641 86.6732C8.54505 86.6468 8.50113 87.289 9.07641 87.5265C10.934 88.1379 10.5256 88.8856 11.4258 88.8856C12.6203 88.8856 13.4678 87.9531 13.4678 86.4928C13.4942 82.5869 13.4942 67.4032 13.5249 66.7918C14.4339 66.5674 14.9389 66.3299 14.9389 65.9033Z" fill="#003974"/>
<path d="M18.4169 47.7725H80.5991V47.7373C88.104 47.7373 96.2105 46.4969 104.717 44.0426C104.893 43.995 105.047 43.8853 105.149 43.7336C105.251 43.5819 105.295 43.3984 105.273 43.2167C105.251 43.035 105.165 42.8673 105.03 42.7443C104.894 42.6213 104.719 42.5513 104.537 42.5471C79.8877 41.6102 60.5744 23.8357 60.5744 2.08052V0.760962C60.5746 0.608473 60.5291 0.459428 60.4437 0.333155C60.3584 0.206883 60.2371 0.109209 60.0957 0.052797C59.9534 -0.00353669 59.7976 -0.0160489 59.6482 0.0168629C59.4987 0.0497746 59.3625 0.126611 59.2569 0.237535C53.2295 6.56306 45.2287 10.6406 36.5754 11.7969C36.3906 11.8205 36.2209 11.9108 36.098 12.0509C35.975 12.1911 35.9075 12.3713 35.9079 12.5578V12.9141C35.9079 31.2912 28.0517 46.2462 18.3994 46.2462C18.2945 46.2383 18.189 46.2521 18.0897 46.2868C17.9903 46.3215 17.8992 46.3764 17.8221 46.4481C17.7449 46.5197 17.6833 46.6066 17.6412 46.7032C17.5991 46.7997 17.5774 46.904 17.5774 47.0094C17.5774 47.1148 17.5991 47.219 17.6412 47.3156C17.6833 47.4122 17.7449 47.499 17.8221 47.5707C17.8992 47.6423 17.9903 47.6972 18.0897 47.732C18.189 47.7667 18.2945 47.7805 18.3994 47.7725H18.4169ZM60.5744 12.7206C65.3302 28.96 80.7353 41.3859 99.9959 43.7171C84.9861 47.3635 71.4518 46.9984 60.5744 42.745V12.7206ZM60.5744 44.3901C62.5998 45.1479 64.6726 45.7724 66.7794 46.2594H60.5744V44.3901ZM59.0505 7.16963V42.1292C56.1384 40.865 53.3851 39.2617 50.8474 37.3524C49.3691 36.2367 47.9761 35.0119 46.68 33.6884C46.9874 33.3321 47.2948 32.9715 47.5934 32.5976C52.705 26.1933 56.5518 17.6426 59.0505 7.15644V7.16963ZM45.648 32.6064C43.4809 30.2094 41.6705 27.5117 40.2729 24.5966C46.0784 20.7875 53.008 13.266 57.8385 5.68293C55.2696 17.0443 51.2295 25.9822 45.648 32.5932V32.6064ZM56.6265 4.75923C51.9453 12.096 45.2791 19.4152 39.6493 23.1847C38.3112 20.0276 37.5669 16.65 37.4537 13.222C44.4844 12.1535 51.1039 9.22781 56.6309 4.74604L56.6265 4.75923ZM37.4537 21.676C38.9901 26.1522 41.4347 30.2616 44.6336 33.7456C42.5065 36.0906 40.0944 38.1594 37.4537 39.9035V21.676ZM37.4537 41.6982C40.4877 39.7909 43.2513 37.4829 45.67 34.8364C46.9984 36.1852 48.4235 37.4348 49.934 38.5752C52.7461 40.681 55.8102 42.4261 59.0549 43.7699V46.2462H37.4537V41.6982ZM35.9298 46.2462H27.3534C30.3334 45.3547 33.2054 44.1347 35.9167 42.6087L35.9298 46.2462ZM32.0127 37.3832C33.7799 33.9951 35.0968 30.39 35.9298 26.6596V40.8712C32.7589 42.7381 29.3471 44.1604 25.7901 45.0982C28.0956 43.3432 30.2078 40.7437 32.0083 37.3832H32.0127Z" fill="#003974"/>
</g>
<defs>
<clipPath id="clip0_109_1932">
<rect width="117" height="89" fill="white" transform="translate(0.5)"/>
</clipPath>
</defs>
</svg>
