<svg width="24" height="24" viewBox="0 0 24 24" fill="none" xmlns="http://www.w3.org/2000/svg">
<rect width="24" height="24" rx="8" fill="#0059AB"/>
<g clip-path="url(#clip0_50_897)">
<path d="M11.4655 7.85626C12.1587 7.85562 12.8365 8.06059 13.4131 8.44523C13.9898 8.82987 14.4394 9.3769 14.7051 10.0171C14.9708 10.6573 15.0406 11.362 14.9058 12.0419C14.771 12.7218 14.4375 13.3465 13.9476 13.8368C13.4577 14.3272 12.8333 14.6612 12.1535 14.7967C11.4737 14.9322 10.769 14.8629 10.1286 14.5978C9.4881 14.3327 8.94066 13.8836 8.5555 13.3073C8.17033 12.731 7.96474 12.0534 7.96474 11.3603C7.96895 10.4328 8.33903 9.54445 8.99456 8.88833C9.65008 8.2322 10.5381 7.86131 11.4655 7.85626ZM11.4655 7.20026C10.6428 7.20026 9.83848 7.44424 9.15437 7.90134C8.47026 8.35845 7.93707 9.00815 7.62221 9.76829C7.30734 10.5284 7.22496 11.3649 7.38548 12.1718C7.54599 12.9788 7.94219 13.72 8.52398 14.3018C9.10577 14.8836 9.84701 15.2798 10.654 15.4403C11.4609 15.6008 12.2974 15.5185 13.0575 15.2036C13.8176 14.8887 14.4674 14.3555 14.9245 13.6714C15.3816 12.9873 15.6255 12.183 15.6255 11.3603C15.6255 10.257 15.1873 9.19884 14.4071 8.41869C13.627 7.63854 12.5688 7.20026 11.4655 7.20026Z" fill="white"/>
<path d="M17.44 16.893L15.0816 14.5186L14.6272 14.9698L16.9856 17.3442C17.0152 17.3741 17.0504 17.3978 17.0892 17.414C17.128 17.4302 17.1696 17.4386 17.2117 17.4388C17.2537 17.4389 17.2954 17.4308 17.3343 17.4149C17.3732 17.3989 17.4086 17.3754 17.4384 17.3458C17.4682 17.3162 17.4919 17.281 17.5082 17.2422C17.5244 17.2034 17.5328 17.1618 17.533 17.1197C17.5331 17.0777 17.525 17.036 17.509 16.9971C17.4931 16.9582 17.4696 16.9229 17.44 16.893Z" fill="white"/>
</g>
<defs>
<clipPath id="clip0_50_897">
<rect width="11.52" height="11.52" fill="white" transform="translate(6.23999 6.24023)"/>
</clipPath>
</defs>
</svg>
