<svg width="70" height="70" viewBox="0 0 70 70" fill="none" xmlns="http://www.w3.org/2000/svg">
<rect width="70" height="70" rx="16" fill="#F37021" fill-opacity="0.1"/>
<path d="M45 46.4333H43.7333C42.4 46.4333 41.1333 46.95 40.2 47.8833L37.35 50.7C36.05 51.9833 33.9334 51.9833 32.6334 50.7L29.7833 47.8833C28.85 46.95 27.5667 46.4333 26.25 46.4333H25C22.2333 46.4333 20 44.2167 20 41.4834V23.3C20 20.5666 22.2333 18.35 25 18.35H45C47.7667 18.35 50 20.5666 50 23.3V41.4834C50 44.2 47.7667 46.4333 45 46.4333Z" stroke="#F37021" stroke-width="1.5" stroke-miterlimit="10" stroke-linecap="round" stroke-linejoin="round"/>
<path d="M34.9999 31.6667C37.1446 31.6667 38.8833 29.928 38.8833 27.7833C38.8833 25.6386 37.1446 23.9 34.9999 23.9C32.8552 23.9 31.1166 25.6386 31.1166 27.7833C31.1166 29.928 32.8552 31.6667 34.9999 31.6667Z" stroke="#F37021" stroke-width="1.5" stroke-linecap="round" stroke-linejoin="round"/>
<path d="M41.6667 41.1C41.6667 38.1 38.6834 35.6667 35 35.6667C31.3167 35.6667 28.3334 38.1 28.3334 41.1" stroke="#F37021" stroke-width="1.5" stroke-linecap="round" stroke-linejoin="round"/>
</svg>
