<svg width="70" height="70" viewBox="0 0 70 70" fill="none" xmlns="http://www.w3.org/2000/svg">
<rect width="70" height="70" rx="16" fill="#53B7B2" fill-opacity="0.1"/>
<path d="M20.2833 27.3999L35 35.9166L49.6167 27.4499" stroke="#53B7B2" stroke-width="1.5" stroke-linecap="round" stroke-linejoin="round"/>
<path d="M35 51.0168V35.9001" stroke="#53B7B2" stroke-width="1.5" stroke-linecap="round" stroke-linejoin="round"/>
<path d="M31.5499 19.1334L22.6499 24.0667C20.6333 25.1834 18.9833 27.9834 18.9833 30.2834V39.7001C18.9833 42.0001 20.6333 44.8001 22.6499 45.9167L31.5499 50.8667C33.4499 51.9167 36.5666 51.9167 38.4666 50.8667L47.3666 45.9167C49.3833 44.8001 51.0333 42.0001 51.0333 39.7001V30.2834C51.0333 27.9834 49.3833 25.1834 47.3666 24.0667L38.4666 19.1167C36.5499 18.0667 33.4499 18.0667 31.5499 19.1334Z" stroke="#53B7B2" stroke-width="1.5" stroke-linecap="round" stroke-linejoin="round"/>
</svg>
