<svg width="70" height="70" viewBox="0 0 70 70" fill="none" xmlns="http://www.w3.org/2000/svg">
<rect width="70" height="70" rx="16" fill="#9E00FF" fill-opacity="0.1"/>
<path d="M28.3334 18.3333V23.3333" stroke="#9E00FF" stroke-width="1.5" stroke-miterlimit="10" stroke-linecap="round" stroke-linejoin="round"/>
<path d="M41.6666 18.3333V23.3333" stroke="#9E00FF" stroke-width="1.5" stroke-miterlimit="10" stroke-linecap="round" stroke-linejoin="round"/>
<path d="M20.8334 30.15H49.1667" stroke="#9E00FF" stroke-width="1.5" stroke-miterlimit="10" stroke-linecap="round" stroke-linejoin="round"/>
<path d="M50 29.1667V43.3333C50 48.3333 47.5 51.6667 41.6667 51.6667H28.3333C22.5 51.6667 20 48.3333 20 43.3333V29.1667C20 24.1667 22.5 20.8333 28.3333 20.8333H41.6667C47.5 20.8333 50 24.1667 50 29.1667Z" stroke="#9E00FF" stroke-width="1.5" stroke-miterlimit="10" stroke-linecap="round" stroke-linejoin="round"/>
<path d="M41.1578 37.8334H41.1728" stroke="#9E00FF" stroke-width="2" stroke-linecap="round" stroke-linejoin="round"/>
<path d="M41.1578 42.8334H41.1728" stroke="#9E00FF" stroke-width="2" stroke-linecap="round" stroke-linejoin="round"/>
<path d="M34.9925 37.8334H35.0075" stroke="#9E00FF" stroke-width="2" stroke-linecap="round" stroke-linejoin="round"/>
<path d="M34.9925 42.8334H35.0075" stroke="#9E00FF" stroke-width="2" stroke-linecap="round" stroke-linejoin="round"/>
<path d="M28.8238 37.8334H28.8388" stroke="#9E00FF" stroke-width="2" stroke-linecap="round" stroke-linejoin="round"/>
<path d="M28.8238 42.8334H28.8388" stroke="#9E00FF" stroke-width="2" stroke-linecap="round" stroke-linejoin="round"/>
</svg>
